<svg xmlns="http://www.w3.org/2000/svg" width="53.5" height="50.925" viewBox="0 0 53.5 50.925">
  <path id="Icon_material-card-travel" data-name="Icon material-card-travel" d="M49.35,13.3H41.625V8.15A5.132,5.132,0,0,0,36.475,3H21.025a5.132,5.132,0,0,0-5.15,5.15V13.3H8.15A5.132,5.132,0,0,0,3,18.45V46.775a5.132,5.132,0,0,0,5.15,5.15h41.2a5.132,5.132,0,0,0,5.15-5.15V18.45A5.132,5.132,0,0,0,49.35,13.3ZM21.025,8.15h15.45V13.3H21.025ZM49.35,46.775H8.15v-5.15h41.2Zm0-12.875H8.15V18.45h7.725V23.6h5.15V18.45h15.45V23.6h5.15V18.45H49.35Z" transform="translate(-2 -2)" fill="none" stroke="#e5e5e5" stroke-width="2"/>
</svg>
