<svg xmlns="http://www.w3.org/2000/svg" width="60.825" height="37.311" viewBox="0 0 60.825 37.311">
  <path id="Icon_awesome-handshake" data-name="Icon awesome-handshake" d="M39.955,4.5h-7.9a2.94,2.94,0,0,0-1.985.772l-9.035,8.272c-.009.009-.018.028-.028.037a3.656,3.656,0,0,0-.193,5.147,3.833,3.833,0,0,0,5.156.248c.009-.009.028-.009.037-.018l7.344-6.728A1.47,1.47,0,0,1,35.341,14.4l-2.4,2.2L46.325,27.46a6.622,6.622,0,0,1,.726.708V10.382L42.032,5.364A2.92,2.92,0,0,0,39.955,4.5ZM50,10.4V30.98a2.938,2.938,0,0,0,2.941,2.941h5.882V10.4ZM54.413,30.98a1.471,1.471,0,1,1,1.471-1.471A1.475,1.475,0,0,1,54.413,30.98ZM0,33.912H5.882a2.938,2.938,0,0,0,2.941-2.941V10.4H0Zm4.412-5.873A1.471,1.471,0,1,1,2.941,29.51,1.475,1.475,0,0,1,4.412,28.039Zm40.065,1.71L30.754,18.609,28,21.136a6.616,6.616,0,1,1-8.943-9.752L26.572,4.5h-7.7a2.936,2.936,0,0,0-2.077.864l-5.028,5.018V30.962h1.682l8.318,7.528a5.881,5.881,0,0,0,8.272-.855l.018-.018L31.7,39.041a3.416,3.416,0,0,0,4.807-.5L39.394,35l.5.4a2.937,2.937,0,0,0,4.136-.432l.873-1.075a2.947,2.947,0,0,0-.423-4.145Z" transform="translate(1 -3.5)" fill="none" stroke="#e5e5e5" stroke-width="2"/>
</svg>
