<svg xmlns="http://www.w3.org/2000/svg" width="41.932" height="43.194" viewBox="0 0 41.932 43.194">
  <path id="Icon_awesome-hotel" data-name="Icon awesome-hotel" d="M38.823,5.149a1.208,1.208,0,0,0,1.109-1.287V1.287A1.208,1.208,0,0,0,38.823,0H1.109A1.208,1.208,0,0,0,0,1.287V3.862A1.208,1.208,0,0,0,1.109,5.149H2.217v30.9H1.109A1.208,1.208,0,0,0,0,37.332v2.575a1.208,1.208,0,0,0,1.109,1.287H17.748V34.757a1.212,1.212,0,0,1,1.109-1.287h2.218a1.212,1.212,0,0,1,1.109,1.287v6.437H38.823a1.208,1.208,0,0,0,1.109-1.287V37.332a1.208,1.208,0,0,0-1.109-1.287H37.714V5.149Zm-21.075,3.6a1.04,1.04,0,0,1,.887-1.03H21.3a1.04,1.04,0,0,1,.887,1.03v3.09a1.04,1.04,0,0,1-.887,1.03H18.635a1.04,1.04,0,0,1-.887-1.03Zm0,7.724a1.04,1.04,0,0,1,.887-1.03H21.3a1.04,1.04,0,0,1,.887,1.03v3.09A1.04,1.04,0,0,1,21.3,20.6H18.635a1.04,1.04,0,0,1-.887-1.03v-3.09ZM8.874,8.754a1.04,1.04,0,0,1,.887-1.03h2.662a1.04,1.04,0,0,1,.887,1.03v3.09a1.04,1.04,0,0,1-.887,1.03H9.761a1.04,1.04,0,0,1-.887-1.03ZM12.423,20.6H9.761a1.04,1.04,0,0,1-.887-1.03v-3.09a1.04,1.04,0,0,1,.887-1.03h2.662a1.04,1.04,0,0,1,.887,1.03v3.09A1.04,1.04,0,0,1,12.423,20.6Zm.887,10.3c0-4.266,2.98-7.724,6.655-7.724s6.655,3.458,6.655,7.724ZM31.058,19.567a1.04,1.04,0,0,1-.887,1.03H27.509a1.04,1.04,0,0,1-.887-1.03v-3.09a1.04,1.04,0,0,1,.887-1.03h2.662a1.04,1.04,0,0,1,.887,1.03Zm0-7.724a1.04,1.04,0,0,1-.887,1.03H27.509a1.04,1.04,0,0,1-.887-1.03V8.754a1.04,1.04,0,0,1,.887-1.03h2.662a1.04,1.04,0,0,1,.887,1.03Z" transform="translate(1 1)" fill="none" stroke="#e5e5e5" stroke-width="2"/>
</svg>
