<svg xmlns="http://www.w3.org/2000/svg" width="38" height="38" viewBox="0 0 38 38">
  <g id="Group_3" data-name="Group 3" transform="translate(-1433.806 -4388)">
    <circle id="Ellipse_6" data-name="Ellipse 6" cx="19" cy="19" r="19" transform="translate(1433.806 4388)" fill="#7e7e7e"/>
    <path id="Icon_awesome-instagram" data-name="Icon awesome-instagram" d="M10.544,7.375a5.407,5.407,0,1,0,5.407,5.407A5.4,5.4,0,0,0,10.544,7.375Zm0,8.922a3.515,3.515,0,1,1,3.515-3.515A3.522,3.522,0,0,1,10.544,16.3Zm6.889-9.144a1.261,1.261,0,1,1-1.261-1.261A1.258,1.258,0,0,1,17.434,7.154Zm3.581,1.28a6.241,6.241,0,0,0-1.7-4.419,6.282,6.282,0,0,0-4.419-1.7c-1.741-.1-6.96-.1-8.7,0a6.273,6.273,0,0,0-4.419,1.7,6.262,6.262,0,0,0-1.7,4.419c-.1,1.741-.1,6.96,0,8.7a6.241,6.241,0,0,0,1.7,4.419,6.29,6.29,0,0,0,4.419,1.7c1.741.1,6.96.1,8.7,0a6.241,6.241,0,0,0,4.419-1.7,6.282,6.282,0,0,0,1.7-4.419c.1-1.741.1-6.955,0-8.7ZM18.765,19a3.559,3.559,0,0,1-2,2c-1.388.551-4.682.424-6.217.424S5.711,21.55,4.328,21a3.559,3.559,0,0,1-2-2c-.551-1.388-.424-4.682-.424-6.216s-.122-4.833.424-6.217a3.559,3.559,0,0,1,2-2c1.388-.551,4.682-.424,6.217-.424s4.833-.122,6.217.424a3.559,3.559,0,0,1,2,2c.551,1.388.424,4.682.424,6.217S19.316,17.615,18.765,19Z" transform="translate(1442.095 4394.652)" fill="#212121"/>
  </g>
</svg>
