<svg xmlns="http://www.w3.org/2000/svg" width="38.043" height="38.043" viewBox="0 0 38.043 38.043">
  <path id="Icon_awesome-pinterest" data-name="Icon awesome-pinterest" d="M38.043,19.584a19.024,19.024,0,0,1-24.651,18.17,21.382,21.382,0,0,0,2.362-4.986c.23-.89,1.181-4.525,1.181-4.525a5.094,5.094,0,0,0,4.357,2.186c5.737,0,9.871-5.277,9.871-11.835,0-6.282-5.131-10.983-11.727-10.983-8.207,0-12.571,5.507-12.571,11.513,0,2.792,1.488,6.266,3.858,7.371.36.169.552.092.637-.253.061-.261.384-1.557.529-2.155a.569.569,0,0,0-.13-.545,7.491,7.491,0,0,1-1.4-4.341,8.231,8.231,0,0,1,8.59-8.253c4.671,0,7.946,3.183,7.946,7.739,0,5.147-2.6,8.713-5.983,8.713a2.759,2.759,0,0,1-2.815-3.436c.537-2.263,1.572-4.7,1.572-6.335a2.389,2.389,0,0,0-2.408-2.677c-1.91,0-3.444,1.971-3.444,4.617a6.854,6.854,0,0,0,.568,2.823s-1.879,7.961-2.224,9.449a18.413,18.413,0,0,0-.069,5.461A19.024,19.024,0,1,1,38.043,19.584Z" transform="translate(0 -0.563)" fill="#7e7e7e"/>
</svg>
