<svg xmlns="http://www.w3.org/2000/svg" width="203.052" height="38.25" viewBox="0 0 203.052 38.25">
  <g id="social" transform="translate(-1268.754 -4388)">
    <circle id="Ellipse_5" data-name="Ellipse 5" cx="19" cy="19" r="19" transform="translate(1323.806 4388)" fill="#7e7e7e"/>
    <circle id="Ellipse_6" data-name="Ellipse 6" cx="19" cy="19" r="19" transform="translate(1433.806 4388)" fill="#7e7e7e"/>
    <path id="Icon_simple-facebook" data-name="Icon simple-facebook" d="M38.1,19.051a19.051,19.051,0,1,0-22.028,18.82V24.558H11.237V19.051h4.837v-4.2c0-4.775,2.844-7.412,7.2-7.412a29.3,29.3,0,0,1,4.265.372V12.5h-2.4a2.754,2.754,0,0,0-3.1,2.975v3.574h5.284l-.845,5.507H22.028V37.871A19.056,19.056,0,0,0,38.1,19.051Z" transform="translate(1268.754 4388.379)" fill="#7e7e7e"/>
    <path id="Icon_feather-twitter" data-name="Icon feather-twitter" d="M26.046,4.5a12.161,12.161,0,0,1-3.5,1.707,5,5,0,0,0-8.77,3.347v1.116A11.894,11.894,0,0,1,3.731,5.612S-.731,15.653,9.31,20.116A12.987,12.987,0,0,1,1.5,22.348c10.042,5.579,22.315,0,22.315-12.831a5.021,5.021,0,0,0-.089-.926A8.613,8.613,0,0,0,26.046,4.5Z" transform="translate(1329.678 4393.475)" fill="none" stroke="#212121" stroke-linecap="round" stroke-linejoin="round" stroke-width="2"/>
    <path id="Icon_awesome-pinterest" data-name="Icon awesome-pinterest" d="M38.043,19.584a19.024,19.024,0,0,1-24.651,18.17,21.382,21.382,0,0,0,2.362-4.986c.23-.89,1.181-4.525,1.181-4.525a5.094,5.094,0,0,0,4.357,2.186c5.737,0,9.871-5.277,9.871-11.835,0-6.282-5.131-10.983-11.727-10.983-8.207,0-12.571,5.507-12.571,11.513,0,2.792,1.488,6.266,3.858,7.371.36.169.552.092.637-.253.061-.261.384-1.557.529-2.155a.569.569,0,0,0-.13-.545,7.491,7.491,0,0,1-1.4-4.341,8.231,8.231,0,0,1,8.59-8.253c4.671,0,7.946,3.183,7.946,7.739,0,5.147-2.6,8.713-5.983,8.713a2.759,2.759,0,0,1-2.815-3.436c.537-2.263,1.572-4.7,1.572-6.335a2.389,2.389,0,0,0-2.408-2.677c-1.91,0-3.444,1.971-3.444,4.617a6.854,6.854,0,0,0,.568,2.823s-1.879,7.961-2.224,9.449a18.413,18.413,0,0,0-.069,5.461A19.024,19.024,0,1,1,38.043,19.584Z" transform="translate(1378.626 4387.438)" fill="#7e7e7e"/>
    <path id="Icon_awesome-instagram" data-name="Icon awesome-instagram" d="M10.544,7.375a5.407,5.407,0,1,0,5.407,5.407A5.4,5.4,0,0,0,10.544,7.375Zm0,8.922a3.515,3.515,0,1,1,3.515-3.515A3.522,3.522,0,0,1,10.544,16.3Zm6.889-9.144a1.261,1.261,0,1,1-1.261-1.261A1.258,1.258,0,0,1,17.434,7.154Zm3.581,1.28a6.241,6.241,0,0,0-1.7-4.419,6.282,6.282,0,0,0-4.419-1.7c-1.741-.1-6.96-.1-8.7,0a6.273,6.273,0,0,0-4.419,1.7,6.262,6.262,0,0,0-1.7,4.419c-.1,1.741-.1,6.96,0,8.7a6.241,6.241,0,0,0,1.7,4.419,6.29,6.29,0,0,0,4.419,1.7c1.741.1,6.96.1,8.7,0a6.241,6.241,0,0,0,4.419-1.7,6.282,6.282,0,0,0,1.7-4.419c.1-1.741.1-6.955,0-8.7ZM18.765,19a3.559,3.559,0,0,1-2,2c-1.388.551-4.682.424-6.217.424S5.711,21.55,4.328,21a3.559,3.559,0,0,1-2-2c-.551-1.388-.424-4.682-.424-6.216s-.122-4.833.424-6.217a3.559,3.559,0,0,1,2-2c1.388-.551,4.682-.424,6.217-.424s4.833-.122,6.217.424a3.559,3.559,0,0,1,2,2c.551,1.388.424,4.682.424,6.217S19.316,17.615,18.765,19Z" transform="translate(1442.094 4394.652)" fill="#212121"/>
  </g>
</svg>
