<svg xmlns="http://www.w3.org/2000/svg" width="38" height="38" viewBox="0 0 38 38">
  <g id="Group_2" data-name="Group 2" transform="translate(-1323.806 -4388)">
    <circle id="Ellipse_5" data-name="Ellipse 5" cx="19" cy="19" r="19" transform="translate(1323.806 4388)" fill="#7e7e7e"/>
    <path id="Icon_feather-twitter" data-name="Icon feather-twitter" d="M26.046,4.5a12.161,12.161,0,0,1-3.5,1.707,5,5,0,0,0-8.77,3.347v1.116A11.894,11.894,0,0,1,3.731,5.612S-.731,15.653,9.31,20.116A12.987,12.987,0,0,1,1.5,22.348c10.042,5.579,22.315,0,22.315-12.831a5.021,5.021,0,0,0-.089-.926A8.613,8.613,0,0,0,26.046,4.5Z" transform="translate(1329.679 4393.475)" fill="none" stroke="#212121" stroke-linecap="round" stroke-linejoin="round" stroke-width="2"/>
  </g>
</svg>
